<svg width="800" height="340" viewBox="0 0 800 340" xmlns="http://www.w3.org/2000/svg">

  <defs>
    <clipPath id="poolWater">
      <circle cx="170" cy="170" r="98"/>
    </clipPath>
    <clipPath id="deckClip">
      <circle cx="170" cy="170" r="130"/>
    </clipPath>
  </defs>

  <!-- ═══════════════════════════════════════════ -->
  <!-- EMBLEM                                       -->
  <!-- ═══════════════════════════════════════════ -->

  <!-- Shadow layer suggestion: thick dark outer -->
  <circle cx="172" cy="173" r="132" fill="#0A1428" opacity="0.18"/>

  <!-- Outermost gold band -->
  <circle cx="170" cy="170" r="131" fill="#C9A84C"/>
  <!-- Cream gap -->
  <circle cx="170" cy="170" r="124" fill="#EDE8DC"/>
  <!-- Second thin gold ring -->
  <circle cx="170" cy="170" r="121" fill="#C9A84C"/>
  <!-- Navy pool deck -->
  <circle cx="170" cy="170" r="116" fill="#0D1B3E"/>

  <!-- ── MOSAIC TILE BORDER PATTERN (all 4 arcs) ── -->
  <!-- Top arc tiles -->
  <rect x="117" y="57"  width="7" height="7" rx="1.5" fill="#C9A84C"/>
  <rect x="128" y="52"  width="7" height="7" rx="1.5" fill="#EDE8DC"/>
  <rect x="139" y="48"  width="7" height="7" rx="1.5" fill="#C9A84C"/>
  <rect x="151" y="46"  width="7" height="7" rx="1.5" fill="#EDE8DC"/>
  <rect x="163" y="45"  width="7" height="7" rx="1.5" fill="#C9A84C"/>
  <rect x="175" y="45"  width="7" height="7" rx="1.5" fill="#EDE8DC"/>
  <rect x="187" y="46"  width="7" height="7" rx="1.5" fill="#C9A84C"/>
  <rect x="199" y="48"  width="7" height="7" rx="1.5" fill="#EDE8DC"/>
  <rect x="210" y="52"  width="7" height="7" rx="1.5" fill="#C9A84C"/>
  <rect x="220" y="57"  width="7" height="7" rx="1.5" fill="#EDE8DC"/>

  <!-- Bottom arc tiles -->
  <rect x="117" y="276" width="7" height="7" rx="1.5" fill="#EDE8DC"/>
  <rect x="128" y="281" width="7" height="7" rx="1.5" fill="#C9A84C"/>
  <rect x="139" y="284" width="7" height="7" rx="1.5" fill="#EDE8DC"/>
  <rect x="151" y="286" width="7" height="7" rx="1.5" fill="#C9A84C"/>
  <rect x="163" y="287" width="7" height="7" rx="1.5" fill="#EDE8DC"/>
  <rect x="175" y="287" width="7" height="7" rx="1.5" fill="#C9A84C"/>
  <rect x="187" y="286" width="7" height="7" rx="1.5" fill="#EDE8DC"/>
  <rect x="199" y="284" width="7" height="7" rx="1.5" fill="#C9A84C"/>
  <rect x="210" y="281" width="7" height="7" rx="1.5" fill="#EDE8DC"/>
  <rect x="220" y="276" width="7" height="7" rx="1.5" fill="#C9A84C"/>

  <!-- Left arc tiles -->
  <rect x="49"  y="130" width="7" height="7" rx="1.5" fill="#C9A84C"/>
  <rect x="45"  y="143" width="7" height="7" rx="1.5" fill="#EDE8DC"/>
  <rect x="43"  y="157" width="7" height="7" rx="1.5" fill="#C9A84C"/>
  <rect x="43"  y="171" width="7" height="7" rx="1.5" fill="#EDE8DC"/>
  <rect x="45"  y="185" width="7" height="7" rx="1.5" fill="#C9A84C"/>
  <rect x="49"  y="198" width="7" height="7" rx="1.5" fill="#EDE8DC"/>

  <!-- Right arc tiles -->
  <rect x="284" y="130" width="7" height="7" rx="1.5" fill="#EDE8DC"/>
  <rect x="288" y="143" width="7" height="7" rx="1.5" fill="#C9A84C"/>
  <rect x="290" y="157" width="7" height="7" rx="1.5" fill="#EDE8DC"/>
  <rect x="290" y="171" width="7" height="7" rx="1.5" fill="#C9A84C"/>
  <rect x="288" y="185" width="7" height="7" rx="1.5" fill="#EDE8DC"/>
  <rect x="284" y="198" width="7" height="7" rx="1.5" fill="#C9A84C"/>

  <!-- ── POOL WATER BASE ── -->
  <circle cx="170" cy="170" r="98" fill="#1976B8"/>

  <!-- Water depth rings (top-down pool view) -->
  <ellipse cx="170" cy="178" rx="72" ry="58" fill="#1565A8"/>
  <ellipse cx="170" cy="184" rx="48" ry="38" fill="#1055A0"/>

  <!-- ── LANE LINES (luxury pool detail) ── -->
  <g clip-path="url(#poolWater)">
    <!-- Lane rope left -->
    <line x1="130" y1="72" x2="130" y2="268" stroke="#C9A84C" stroke-width="1.5" opacity="0.45"/>
    <!-- Lane rope right -->
    <line x1="210" y1="72" x2="210" y2="268" stroke="#C9A84C" stroke-width="1.5" opacity="0.45"/>
    <!-- Lane rope dots left -->
    <circle cx="130" cy="100" r="4" fill="#C9A84C" opacity="0.55"/>
    <circle cx="130" cy="120" r="4" fill="#C9A84C" opacity="0.55"/>
    <circle cx="130" cy="140" r="4" fill="#C9A84C" opacity="0.55"/>
    <circle cx="130" cy="160" r="4" fill="#C9A84C" opacity="0.55"/>
    <circle cx="130" cy="180" r="4" fill="#C9A84C" opacity="0.55"/>
    <circle cx="130" cy="200" r="4" fill="#C9A84C" opacity="0.55"/>
    <circle cx="130" cy="220" r="4" fill="#C9A84C" opacity="0.55"/>
    <circle cx="130" cy="240" r="4" fill="#C9A84C" opacity="0.55"/>
    <!-- Lane rope dots right -->
    <circle cx="210" cy="100" r="4" fill="#C9A84C" opacity="0.55"/>
    <circle cx="210" cy="120" r="4" fill="#C9A84C" opacity="0.55"/>
    <circle cx="210" cy="140" r="4" fill="#C9A84C" opacity="0.55"/>
    <circle cx="210" cy="160" r="4" fill="#C9A84C" opacity="0.55"/>
    <circle cx="210" cy="180" r="4" fill="#C9A84C" opacity="0.55"/>
    <circle cx="210" cy="200" r="4" fill="#C9A84C" opacity="0.55"/>
    <circle cx="210" cy="220" r="4" fill="#C9A84C" opacity="0.55"/>
    <circle cx="210" cy="240" r="4" fill="#C9A84C" opacity="0.55"/>

    <!-- Water shimmer waves -->
    <path d="M 80 130 Q 125 118 170 130 Q 215 142 260 130" fill="none" stroke="#FFFFFF" stroke-width="2.5" stroke-linecap="round" opacity="0.5"/>
    <path d="M 76 150 Q 123 138 170 150 Q 217 162 264 150" fill="none" stroke="#FFFFFF" stroke-width="2" stroke-linecap="round" opacity="0.42"/>
    <path d="M 78 170 Q 124 158 170 170 Q 216 182 262 170" fill="none" stroke="#FFFFFF" stroke-width="2" stroke-linecap="round" opacity="0.36"/>
    <path d="M 83 190 Q 127 178 170 190 Q 213 202 257 190" fill="none" stroke="#FFFFFF" stroke-width="1.5" stroke-linecap="round" opacity="0.3"/>
    <path d="M 90 210 Q 130 200 170 210 Q 210 220 250 210" fill="none" stroke="#FFFFFF" stroke-width="1.5" stroke-linecap="round" opacity="0.25"/>

    <!-- Sun reflection diamond on water surface -->
    <ellipse cx="170" cy="120" rx="18" ry="6" fill="#FFFFFF" opacity="0.22"/>
    <ellipse cx="170" cy="120" rx="8"  ry="3" fill="#FFFFFF" opacity="0.35"/>

    <!-- Shimmer sparkle flecks -->
    <ellipse cx="138" cy="110" rx="9" ry="3.5" fill="#FFFFFF" opacity="0.48"/>
    <ellipse cx="202" cy="124" rx="7" ry="3"   fill="#FFFFFF" opacity="0.38"/>
    <ellipse cx="152" cy="158" rx="11" ry="3.5" fill="#FFFFFF" opacity="0.32"/>
    <ellipse cx="188" cy="172" rx="6"  ry="2.5" fill="#FFFFFF" opacity="0.28"/>
    <ellipse cx="160" cy="195" rx="8"  ry="3"   fill="#FFFFFF" opacity="0.22"/>

    <!-- Palm tree silhouette LEFT (on deck, above water line) -->
    <!-- Trunk -->
    <rect x="91" y="118" width="5" height="28" rx="2" fill="#0D1B3E" opacity="0.7"/>
    <!-- Fronds -->
    <path d="M 93 120 Q 75 105 68 96" fill="none" stroke="#0D1B3E" stroke-width="3" stroke-linecap="round" opacity="0.65"/>
    <path d="M 93 120 Q 82 100 85 88" fill="none" stroke="#0D1B3E" stroke-width="3" stroke-linecap="round" opacity="0.65"/>
    <path d="M 93 120 Q 95 100 106 93" fill="none" stroke="#0D1B3E" stroke-width="3" stroke-linecap="round" opacity="0.65"/>
    <path d="M 93 120 Q 105 108 114 102" fill="none" stroke="#0D1B3E" stroke-width="3" stroke-linecap="round" opacity="0.65"/>
    <path d="M 93 120 Q 78 112 72 108" fill="none" stroke="#0D1B3E" stroke-width="3" stroke-linecap="round" opacity="0.65"/>

    <!-- Palm tree silhouette RIGHT -->
    <rect x="244" y="118" width="5" height="28" rx="2" fill="#0D1B3E" opacity="0.7"/>
    <path d="M 247 120 Q 265 105 272 96"  fill="none" stroke="#0D1B3E" stroke-width="3" stroke-linecap="round" opacity="0.65"/>
    <path d="M 247 120 Q 258 100 255 88"  fill="none" stroke="#0D1B3E" stroke-width="3" stroke-linecap="round" opacity="0.65"/>
    <path d="M 247 120 Q 245 100 234 93"  fill="none" stroke="#0D1B3E" stroke-width="3" stroke-linecap="round" opacity="0.65"/>
    <path d="M 247 120 Q 235 108 226 102" fill="none" stroke="#0D1B3E" stroke-width="3" stroke-linecap="round" opacity="0.65"/>
    <path d="M 247 120 Q 262 112 268 108" fill="none" stroke="#0D1B3E" stroke-width="3" stroke-linecap="round" opacity="0.65"/>
  </g>

  <!-- Gold waterline ring -->
  <circle cx="170" cy="170" r="98"  fill="none" stroke="#C9A84C" stroke-width="3.5"/>
  <circle cx="170" cy="170" r="103" fill="none" stroke="#C9A84C" stroke-width="1" opacity="0.4"/>

  <!-- ── DECORATIVE COMPASS TICK MARKS on navy deck ── -->
  <!-- North tick -->
  <rect x="167" y="58" width="6" height="14" rx="1" fill="#C9A84C" opacity="0.8"/>
  <!-- South tick -->
  <rect x="167" y="268" width="6" height="14" rx="1" fill="#C9A84C" opacity="0.8"/>
  <!-- East tick -->
  <rect x="278" y="167" width="14" height="6" rx="1" fill="#C9A84C" opacity="0.8"/>
  <!-- West tick -->
  <rect x="48" y="167" width="14" height="6" rx="1" fill="#C9A84C" opacity="0.8"/>

  <!-- Small diamond at north -->
  <polygon points="170,54 174,60 170,66 166,60" fill="#C9A84C"/>

  <!-- ═══════════════════════════════════════════ -->
  <!-- WORDMARK                                     -->
  <!-- ═══════════════════════════════════════════ -->

  <!-- Decorative thin top line above ALLURE -->
  <line x1="340" y1="72" x2="760" y2="72" stroke="#C9A84C" stroke-width="0.75" opacity="0.5"/>

  <!-- ALLURE - deep navy, bold serif -->
  <text x="550" y="138"
    font-family="Georgia, 'Times New Roman', serif"
    font-size="86"
    font-weight="700"
    fill="#0D1B3E"
    letter-spacing="6"
    text-anchor="middle">ALLURE</text>

  <!-- POOLS - pool blue -->
  <text x="550" y="218"
    font-family="Georgia, 'Times New Roman', serif"
    font-size="86"
    font-weight="700"
    fill="#1261A0"
    letter-spacing="6"
    text-anchor="middle">POOLS</text>

  <!-- Gold rule -->
  <rect x="340" y="230" width="420" height="3" rx="1.5" fill="#C9A84C"/>
  <!-- Thin line below -->
  <line x1="340" y1="236" x2="760" y2="236" stroke="#C9A84C" stroke-width="0.75" opacity="0.5"/>

  <!-- Small diamond ornaments on rule -->
  <polygon points="340,233 345,230 340,227 335,230" fill="#C9A84C"/>
  <polygon points="760,233 765,230 760,227 755,230" fill="#C9A84C"/>

  <!-- SERVICE & REPAIR -->
  <text x="550" y="266"
    font-family="Arial, Helvetica, sans-serif"
    font-size="16"
    font-weight="700"
    fill="#B8952A"
    letter-spacing="7"
    text-anchor="middle">SERVICE &amp; REPAIR</text>

  <!-- Location line -->
  <text x="550" y="294"
    font-family="Arial, Helvetica, sans-serif"
    font-size="11.5"
    font-weight="400"
    fill="#5A6A8A"
    letter-spacing="2.5"
    text-anchor="middle">HENDERSON  &#xB7;  LAS VEGAS  &#xB7;  BOULDER CITY  &#xB7;  SUMMERLIN</text>

  <!-- Decorative thin bottom line -->
  <line x1="340" y1="308" x2="760" y2="308" stroke="#C9A84C" stroke-width="0.75" opacity="0.35"/>

</svg>
